<?xml version="1.0" standalone="no"?>
<!DOCTYPE svg PUBLIC "-//W3C//DTD SVG 20010904//EN"
 "http://www.w3.org/TR/2001/REC-SVG-20010904/DTD/svg10.dtd">
<svg version="1.0" xmlns="http://www.w3.org/2000/svg"
 width="256.000000pt" height="256.000000pt" viewBox="0 0 256.000000 256.000000"
 preserveAspectRatio="xMidYMid meet">
<metadata>
Created by potrace 1.14, written by Peter Selinger 2001-2017
</metadata>
<g transform="translate(0.000000,256.000000) scale(0.100000,-0.100000)"
fill="#000000" stroke="none">
<path d="M1648 2555 c-2 -2 -26 -7 -53 -10 -381 -50 -739 -299 -929 -644 -54
-98 -109 -240 -127 -328 l-13 -62 -56 -24 c-232 -101 -402 -311 -455 -563 -18
-87 -14 -255 10 -344 24 -94 91 -222 155 -299 110 -131 284 -236 440 -266 63
-12 234 -14 290 -4 163 31 321 118 432 237 48 51 118 153 118 171 0 29 60 15
90 -21 42 -49 310 -60 445 -18 94 29 147 54 226 106 155 102 284 294 324 479
12 54 14 239 4 293 -36 193 -144 368 -298 486 -55 42 -183 109 -235 122 -14 3
-26 8 -26 10 0 2 9 36 20 76 31 118 43 206 43 319 -1 92 -23 149 -82 208 -60
60 -99 74 -218 77 -56 1 -103 1 -105 -1z m-113 -81 c-22 -8 -49 -18 -60 -23
-11 -5 -47 -22 -80 -37 -58 -26 -204 -118 -255 -159 -53 -43 -171 -168 -218
-232 -69 -91 -134 -219 -175 -340 l-34 -102 -47 48 -48 48 28 69 c88 224 251
425 449 555 127 83 202 117 345 160 99 29 165 38 95 13z m-858 -930 c-1 -1
-24 -5 -50 -8 l-48 -7 7 28 c15 69 13 68 55 27 21 -21 38 -39 36 -40z m-7 -61
c-86 -31 -207 -109 -266 -170 l-22 -22 -6 40 c-4 22 -4 43 -2 47 9 15 153 82
206 96 52 14 123 21 90 9z m-370 -294 c-43 -67 -95 -185 -105 -240 -6 -34 -9
-36 -38 -33 -18 2 -41 6 -52 8 -11 3 -24 5 -28 5 -13 1 1 58 31 126 37 85 106
186 165 242 l52 48 7 -48 c6 -45 4 -53 -32 -108z m-145 -323 c18 -3 20 -11 21
-87 1 -46 7 -111 14 -144 7 -33 14 -71 17 -85 3 -17 -7 -42 -30 -78 l-33 -53
-27 55 c-15 30 -34 81 -43 113 -16 56 -29 267 -18 284 3 5 22 6 42 3 20 -3 46
-7 57 -8z m109 -444 c22 -43 88 -134 123 -170 7 -7 36 -33 65 -58 46 -39 80
-94 59 -94 -12 0 -125 61 -161 87 -41 30 -156 146 -169 171 -7 13 -1 30 22 65
17 26 32 47 34 47 1 0 14 -22 27 -48z m356 -332 c22 -11 46 -20 54 -20 8 0 17
-4 20 -9 5 -8 -66 2 -106 15 -18 5 -33 34 -17 34 5 0 27 -9 49 -20z"/>
</g>
</svg>
